<svg id="bikcraft-icon-home" xmlns="http://www.w3.org/2000/svg" width="200" height="124" viewBox="0 0 200 124">
  <path id="Path_6" data-name="Path 6" d="M9.252,10.183C12.4,10.059,20.089,9.81,24,8.937c-.127,1.621-.379,6.605-.379,16.075v4.237c3.528-2.867,6.428-4.362,9.956-4.362A10.411,10.411,0,0,1,42.646,29.5a19.379,19.379,0,0,1,2.52,10.094c0,11.587-5.545,18.192-16.761,18.192a21.333,21.333,0,0,1-8.821-2.119c-1.512.5-3.528,1.5-5.545,2.119l-.631-.375c.127-3.365.127-9.719.127-18.318V23.142c0-3.987-.127-6.729-.252-9.1-.127-1.621-.5-1.87-4.284-1.87ZM28.406,55.416c4.284,0,6.3-5.11,6.3-14.58a20.382,20.382,0,0,0-1.764-9.221,4.55,4.55,0,0,0-4.032-2.492,5.815,5.815,0,0,0-4.663,2.741c-.629.873-.881,1.621-.881,11.464,0,8.1.379,8.35.883,9.346A4.538,4.538,0,0,0,28.406,55.416Zm38.812,1.621c-2.647,0-5.292-.251-9.452-.251-4.409,0-6.553.251-8.694.251V54.918c3.528-.126,4.032-.748,4.159-2.119.125-1.5.252-3.862.252-7.726V37.1c0-3.24,0-5.855-.127-6.978s-.631-1.5-3.907-1.37V26.631c4.411-.373,9.7-.5,13.988-1.37-.127,1.621-.252,4.611-.252,11.464v8.6c0,3.987.127,5.732.252,7.476s.631,1.994,3.78,2.367Zm-9.452-46.23c3.278,0,5.167,1.87,5.167,5.233,0,2.867-2.143,4.861-5.42,4.861A4.671,4.671,0,0,1,52.6,16.041a4.965,4.965,0,0,1,5.167-5.233Zm12.728-.624A93.937,93.937,0,0,0,84.23,8.937q-.256,7.723-.254,15.451V39.965c2.4-.624,7.561-6.854,9.577-10.467.379-.748.379-1.122-.629-1.122l-2.772-.249V26.009c4.663.126,9.452-.126,14.24-.375v2.119c-3.528.375-4.915.624-6.3,1.744a58.6,58.6,0,0,0-6.049,6.23c1.512,3.116,7.815,14.58,10.208,17.694a3.527,3.527,0,0,0,3.151,1.5l1.762.126-.125,2.117a94.453,94.453,0,0,0-13.988.748C91.537,54.419,87,45.946,85.615,43.328c-.756-1.37-1.135-1.868-1.639-1.744,0,5.11-.125,7.6.127,11.215.127,1.621.5,2.119,3.907,2.243v2.119c-2.4,0-4.915-.249-9.073-.249-4.915,0-7.057.249-8.948.249V55.041c3.276-.124,3.78-.746,3.907-1.994.125-1.5.25-4.735.25-11.215V25.76c0-5.11,0-8.972-.125-12.211q0-1.121-1.512-1.122H70.367ZM40.126,87.814c-2.143,6.729-6.3,9.968-13.232,9.968-5.924,0-9.7-1.621-12.349-5.11-2.016-2.616-3.024-6.48-3.024-10.84,0-9.6,5.924-16.946,16.761-16.946,6.553,0,11.341,2.991,11.341,7.851,0,3.363-2.772,4.733-5.04,4.733a5.77,5.77,0,0,1-2.52-.622,1.937,1.937,0,0,1-.883-2.243,18.574,18.574,0,0,0,.379-2.618c0-3.114-1.135-4.609-3.528-4.609-3.907,0-5.924,5.608-5.924,13.334,0,3.114.379,6.6,1.512,8.72,1.26,2.867,3.276,4.486,6.3,4.486,3.78,0,6.176-2.117,7.94-6.978Zm7.182-9.1a68.848,68.848,0,0,0-.379-8.724,1.323,1.323,0,0,0-1.512-1.244H43.148V66.631c3.78-.126,8.948-.375,12.6-1.5l.379.249c.252,1.5.5,5.11.631,7.353h.25c1.641-4.362,3.907-7.851,8.571-7.851a4.719,4.719,0,0,1,4.663,4.984c0,4.113-3.151,5.359-4.411,5.359s-2.141-.375-2.52-1.248c-.629-1.37-1.008-2.117-2.266-2.117-1.387,0-2.143,1.246-3.024,3.24a13.093,13.093,0,0,0-.631,4.486c0,7.1,0,11.091.127,12.835s.754,2.241,5.795,2.367l-.125,2.119c-3.528-.126-6.68-.251-10.333-.251-3.78,0-6.553.126-9.7.251l.377-2.119c3.024-.126,3.78-.5,3.78-1.744.127-1.744.252-5.11.252-8.972V78.716h-.252Zm42.719-5.732c0-3.74-1.262-5.734-3.782-5.734-2.9,0-4.282,1.621-4.282,4.611a13.76,13.76,0,0,0,.25,2.369,1.766,1.766,0,0,1-.754,1.868,6.941,6.941,0,0,1-3.528,1.122c-2.4,0-4.411-1.124-4.411-3.864,0-3.987,5.924-8.473,14.24-8.473,6.8,0,9.827,2.741,10.962,4.486a6.211,6.211,0,0,1,1.008,3.365V91.053c0,2.119.631,2.618,1.387,2.618,1.008,0,2.141-1.621,2.645-4.362l2.143,1c-1.135,5.359-4.411,7.6-8.948,7.6-3.907,0-6.049-1.621-6.68-4.861-3.024,2.991-6.174,4.861-9.45,4.861-5.292,0-8.821-3.489-8.821-9.223,0-3.489,1.512-5.483,4.159-6.6,4.282-1.87,10.71-3.738,13.859-5.981V72.985Zm-7.94,13.83c0,2.741,1.135,5.732,3.907,5.732a3.75,3.75,0,0,0,3.528-2.492,9.16,9.16,0,0,0,.377-2.991V78.593c-1.387.873-3.528,1.87-5.167,2.867C83.22,82.457,82.087,83.7,82.087,86.817Zm24.95-20.808,4.032.124V64.139c.127-5.233,1.387-9.1,4.159-11.839a12.525,12.525,0,0,1,9.2-3.738c5.167,0,7.94,2.492,7.94,5.732,0,2.369-2.016,3.987-4.79,3.987a2.368,2.368,0,0,1-2.52-2.492c0-2.616-.377-4.733-2.266-4.733-1.262,0-2.016,1.12-2.27,3.24-.25,1.994.127,5.732.379,11.587h6.176l-.379,2.492-5.8.375c-.127,2.367-.127,6.48-.127,11.338,0,4.611,0,8.722.127,11.962.127,1.621.379,2.243,1.764,2.369a33.97,33.97,0,0,0,3.4.247l-.256,2.119c-2.393,0-6.174-.249-9.45-.249-3.4,0-7.436.249-9.7.249l.127-2.119c3.276-.124,3.78-.5,3.907-1.868.25-2.119.25-5.359.25-9.719V68.624l-4.282-.249.377-2.369Z" transform="translate(9.146 9.082)" fill="#fec63e"/>
  <path id="Path_7" data-name="Path 7" d="M90.051,43.216,89.8,45.609l-7.686.5c0,2.647-.127,6.553-.127,11.845,0,5.545,0,9.325.254,11.593.125,1.639.754,2.4,2.016,2.4,2.645,0,4.282-2.9,4.913-5.545h1.008l.883,2.9c-1.512,3.655-5.295,6.176-10.839,6.176-3.024,0-5.67-1.008-6.93-2.52a6.942,6.942,0,0,1-1.26-4.536c0-5.167.252-16.761.252-22.305l-4.032-.379.252-2.393h3.78c.127-2.4.127-5.167.127-7.688A34.826,34.826,0,0,0,81.859,32l.756.127q-.33,5.6-.379,11.214h7.815v-.127Z" transform="translate(68.109 31.514)" fill="#fec63e"/>
  <path id="Path_8" data-name="Path 8" d="M190,10V114H10V10ZM200,0H0V124H200Z"/>
  <path id="Path_9" data-name="Path 9" d="M190,10V114H10V10ZM200,0H0V124H200Z"/>
  <path id="Path_10" data-name="Path 10" d="M190,10V114H10V10ZM200,0H0V124H200Z"/>
  <path id="Path_11" data-name="Path 11" d="M190,10V114H10V10ZM200,0H0V124H200Z"/>
</svg>
